<svg xmlns="http://www.w3.org/2000/svg" viewBox="0 0 800 1000"><defs><linearGradient id="n" x1="0" y1="0" x2="0" y2="1"><stop offset="0" stop-color="#0d1b3d"/><stop offset="1" stop-color="#5b2a6e"/></linearGradient></defs><rect width="800" height="1000" fill="url(#n)"/><circle cx="600" cy="190" r="70" fill="#f6f1e9"/><g fill="#0a0f24"><rect x="40" y="520" width="130" height="480"/><rect x="190" y="400" width="110" height="600"/><rect x="320" y="580" width="140" height="420"/><rect x="480" y="450" width="120" height="550"/><rect x="620" y="560" width="150" height="440"/></g><g fill="#ffd27a"><rect x="65" y="560" width="22" height="30"/><rect x="105" y="620" width="22" height="30"/><rect x="215" y="450" width="22" height="30"/><rect x="255" y="520" width="22" height="30"/><rect x="215" y="620" width="22" height="30"/><rect x="345" y="640" width="22" height="30"/><rect x="405" y="720" width="22" height="30"/><rect x="505" y="500" width="22" height="30"/><rect x="545" y="580" width="22" height="30"/><rect x="650" y="620" width="22" height="30"/><rect x="710" y="700" width="22" height="30"/></g><g fill="#fff" opacity=".7"><circle cx="100" cy="120" r="2.5"/><circle cx="240" cy="220" r="2"/><circle cx="420" cy="100" r="2.5"/><circle cx="700" cy="330" r="2"/></g></svg>
